<svg width="60" height="60" viewBox="0 0 60 60" fill="none" xmlns="http://www.w3.org/2000/svg">
<path d="M53.3333 6H50V0H43.3333V6H16.6667V0H10V6H6.66667C2.96667 6 0.0333333 8.7 0.0333333 12L0 54C0 55.5913 0.702379 57.1174 1.95262 58.2426C3.20286 59.3679 4.89856 60 6.66667 60H53.3333C57 60 60 57.3 60 54V12C60 8.7 57 6 53.3333 6ZM53.3333 54H6.66667V24H53.3333V54ZM20 36H13.3333V30H20V36ZM33.3333 36H26.6667V30H33.3333V36ZM46.6667 36H40V30H46.6667V36ZM20 48H13.3333V42H20V48ZM33.3333 48H26.6667V42H33.3333V48ZM46.6667 48H40V42H46.6667V48Z" fill="#1373E4"/>
</svg>
