<svg width="60" height="60" viewBox="0 0 60 60" fill="none" xmlns="http://www.w3.org/2000/svg">
<path d="M0 60L38.9972 45.3944L13.9276 19.1042L0 60ZM34.9025 32.3369L50.4735 16.0078C50.797 15.6677 51.1812 15.398 51.6042 15.2139C52.0272 15.0298 52.4807 14.935 52.9387 14.935C53.3967 14.935 53.8502 15.0298 54.2732 15.2139C54.6962 15.398 55.0805 15.6677 55.4039 16.0078L57.0473 17.7313L60 14.6349L58.3565 12.9114C56.9163 11.4112 54.9687 10.5693 52.9387 10.5693C50.9087 10.5693 48.9611 11.4112 47.5209 12.9114L31.9499 29.2405L34.9025 32.3369ZM22.4513 15.8325L20.8078 17.556L23.7604 20.6524L25.4039 18.9289C26.8344 17.4185 27.6373 15.3761 27.6373 13.2473C27.6373 11.1185 26.8344 9.07611 25.4039 7.56573L23.7604 5.84226L20.8078 8.96787L22.4513 10.6913C23.7883 12.0935 23.7883 14.4304 22.4513 15.8325ZM41.9499 30.4382L37.5209 35.0828L40.4735 38.1792L44.9025 33.5346C45.2259 33.1945 45.6102 32.9247 46.0332 32.7407C46.4562 32.5566 46.9097 32.4618 47.3677 32.4618C47.8257 32.4618 48.2792 32.5566 48.7022 32.7407C49.1252 32.9247 49.5094 33.1945 49.8329 33.5346L54.3175 38.2376L57.2702 35.1412L52.7855 30.4382C51.3453 28.938 49.3977 28.096 47.3677 28.096C45.3377 28.096 43.3901 28.938 41.9499 30.4382ZM36.3788 12.9114L26.3788 23.3982L29.3315 26.4946L39.3315 16.0078C40.762 14.4974 41.5649 12.455 41.5649 10.3262C41.5649 8.19738 40.762 6.15497 39.3315 4.6446L34.9025 0L31.9499 3.0964L36.3788 7.74099C37.7159 9.17235 37.7159 11.5093 36.3788 12.9114Z" fill="#1373E4"/>
</svg>
