<svg width="68" height="37" viewBox="0 0 68 37" fill="none" xmlns="http://www.w3.org/2000/svg">
<path d="M30.08 35.36C28.0533 35.8667 25.9067 36.2533 23.64 36.52C21.4 36.8133 19.2267 36.96 17.12 36.96C14.5867 36.96 12.3733 36.7333 10.48 36.28C8.61333 35.8533 7.25333 35.1733 6.4 34.24C5.62667 33.4133 5.08 32.4667 4.76 31.4C4.44 30.36 4.28 29.1733 4.28 27.84C4.28 26.8 4.37333 25.44 4.56 23.76L9.36 24.24C9.2 25.76 9.12 27 9.12 27.96C9.12 29.56 9.38667 30.64 9.92 31.2C10.32 31.6267 11.1333 31.9467 12.36 32.16C13.6133 32.4 15.1333 32.52 16.92 32.52C19 32.52 21.2 32.3733 23.52 32.08C25.8667 31.7867 28.0533 31.36 30.08 30.8V35.36ZM33.44 21.44H0.96V17.04H15V13.92H11.6C10 13.92 8.64 13.6267 7.52 13.04C6.4 12.4267 5.56 11.6267 5 10.64C4.44 9.65333 4.16 8.58667 4.16 7.44V7.2C4.16 5.44 4.77333 4 6 2.88C7.22667 1.73333 8.98667 1.01333 11.28 0.719999C13.1467 0.453332 15.12 0.319999 17.2 0.319999C19.3067 0.319999 21.28 0.453332 23.12 0.719999C25.4133 1.01333 27.1733 1.73333 28.4 2.88C29.6267 4 30.24 5.44 30.24 7.2V7.44C30.24 8.58667 29.96 9.65333 29.4 10.64C28.84 11.6267 28 12.4267 26.88 13.04C25.76 13.6267 24.4 13.92 22.8 13.92H19.4V17.04H33.44V21.44ZM8.96 7.44C8.96 8.10667 9.16 8.62667 9.56 9C9.98667 9.34667 10.6667 9.52 11.6 9.52H22.8C23.7333 9.52 24.4 9.34667 24.8 9C25.2267 8.62667 25.44 8.10667 25.44 7.44V7.2C25.44 6.58667 25.2267 6.12 24.8 5.8C24.3733 5.48 23.6 5.25333 22.48 5.12C20.8 4.85333 19.04 4.72 17.2 4.72C15.3867 4.72 13.6267 4.85333 11.92 5.12C10.8 5.25333 10.0267 5.48 9.6 5.8C9.17333 6.12 8.96 6.58667 8.96 7.2V7.44ZM64.0941 0.599998V15.64H67.9341V20.44H64.0941V35.48H59.2941V0.599998H64.0941ZM56.8941 28.12C54.8941 28.9733 52.9874 29.6667 51.1741 30.2C49.3874 30.7067 47.6941 30.96 46.0941 30.96C41.6141 30.96 38.7207 28.6533 37.4141 24.04C36.6941 21.48 36.3341 18.44 36.3341 14.92C36.3341 11.6133 36.6674 7.18667 37.3341 1.64H42.1341C41.4407 7.18667 41.0941 11.5867 41.0941 14.84C41.0941 18.04 41.4141 20.7067 42.0541 22.84C42.4274 24.1733 42.9874 25.1333 43.7341 25.72C44.5074 26.3067 45.4541 26.6 46.5741 26.6C47.7741 26.6 49.1341 26.3333 50.6541 25.8C52.2007 25.24 54.2807 24.3867 56.8941 23.24V28.12Z" fill="black"/>
</svg>
