<svg width="58" height="50" viewBox="0 0 58 50" fill="none" xmlns="http://www.w3.org/2000/svg">
<path d="M23.75 23.5C30.1013 23.5 35.25 18.3513 35.25 12C35.25 5.64873 30.1013 0.5 23.75 0.5C17.3987 0.5 12.25 5.64873 12.25 12C12.25 18.3513 17.3987 23.5 23.75 23.5Z" fill="#1373E4"/>
<path d="M25.6763 26.4325C25.0438 26.4038 24.4112 26.375 23.75 26.375C16.7925 26.375 10.295 28.3012 4.74625 31.6075C2.21625 33.1025 0.75 35.92 0.75 38.8813V46.5H27.3725C25.341 43.6036 24.1138 40.2204 23.8158 36.6952C23.5178 33.17 24.1598 29.6288 25.6763 26.4325ZM54.6562 35C54.6562 34.3675 54.57 33.7925 54.4838 33.1887L57.7612 30.285L54.8862 25.3113L50.7175 26.72C49.7975 25.9437 48.7625 25.34 47.6125 24.9087L46.75 20.625H41L40.1375 24.9087C38.9875 25.34 37.9525 25.9437 37.0325 26.72L32.8638 25.3113L29.9888 30.285L33.2663 33.1887C33.18 33.7925 33.0938 34.3675 33.0938 35C33.0938 35.6325 33.18 36.2075 33.2663 36.8112L29.9888 39.715L32.8638 44.6888L37.0325 43.28C37.9525 44.0562 38.9875 44.66 40.1375 45.0913L41 49.375H46.75L47.6125 45.0913C48.7625 44.66 49.7975 44.0562 50.7175 43.28L54.8862 44.6888L57.7612 39.715L54.4838 36.8112C54.57 36.2075 54.6562 35.6325 54.6562 35ZM43.875 40.75C40.7125 40.75 38.125 38.1625 38.125 35C38.125 31.8375 40.7125 29.25 43.875 29.25C47.0375 29.25 49.625 31.8375 49.625 35C49.625 38.1625 47.0375 40.75 43.875 40.75Z" fill="#1373E4"/>
</svg>
